<mxfile host="www.draw.io" modified="2020-01-13T10:19:08.907Z" agent="Mozilla/5.0 (Windows NT 6.1; Win64; x64) AppleWebKit/537.36 (KHTML, like Gecko) Chrome/76.0.3809.100 Safari/537.36" etag="kbBsGk3k6I6kiHdO27DQ" version="12.5.1" type="github">
  <diagram id="6guljXhZOZYRVNvfO9t_" name="第 1 页">
    <mxGraphModel dx="1298" dy="761" grid="1" gridSize="10" guides="1" tooltips="1" connect="1" arrows="1" fold="1" page="1" pageScale="1" pageWidth="827" pageHeight="1169" math="0" shadow="0">
      <root>
        <mxCell id="0"/>
        <mxCell id="1" parent="0"/>
        <mxCell id="vs3mQmGJEYI14M0S7p_8-3" style="edgeStyle=orthogonalEdgeStyle;rounded=0;orthogonalLoop=1;jettySize=auto;html=1;entryX=0.5;entryY=0;entryDx=0;entryDy=0;" edge="1" parent="1" source="vs3mQmGJEYI14M0S7p_8-1" target="vs3mQmGJEYI14M0S7p_8-2">
          <mxGeometry relative="1" as="geometry"/>
        </mxCell>
        <mxCell id="vs3mQmGJEYI14M0S7p_8-1" value="菜单加载逻辑" style="rounded=1;whiteSpace=wrap;html=1;" vertex="1" parent="1">
          <mxGeometry x="353" y="120" width="120" height="60" as="geometry"/>
        </mxCell>
        <mxCell id="vs3mQmGJEYI14M0S7p_8-5" value="" style="edgeStyle=orthogonalEdgeStyle;rounded=0;orthogonalLoop=1;jettySize=auto;html=1;" edge="1" parent="1" source="vs3mQmGJEYI14M0S7p_8-2" target="vs3mQmGJEYI14M0S7p_8-4">
          <mxGeometry relative="1" as="geometry"/>
        </mxCell>
        <mxCell id="vs3mQmGJEYI14M0S7p_8-2" value="MSG_NETWORK_OK&lt;br&gt;initHomeNetData&lt;br&gt;初始化数据" style="rounded=0;whiteSpace=wrap;html=1;" vertex="1" parent="1">
          <mxGeometry x="353" y="220" width="120" height="60" as="geometry"/>
        </mxCell>
        <mxCell id="vs3mQmGJEYI14M0S7p_8-7" style="edgeStyle=orthogonalEdgeStyle;rounded=0;orthogonalLoop=1;jettySize=auto;html=1;" edge="1" parent="1" source="vs3mQmGJEYI14M0S7p_8-4" target="vs3mQmGJEYI14M0S7p_8-6">
          <mxGeometry relative="1" as="geometry"/>
        </mxCell>
        <mxCell id="vs3mQmGJEYI14M0S7p_8-4" value="initNavigation&lt;br&gt;初始化导航栏&lt;br&gt;initData&lt;br&gt;初始化数据" style="rounded=0;whiteSpace=wrap;html=1;" vertex="1" parent="1">
          <mxGeometry x="353" y="330" width="120" height="60" as="geometry"/>
        </mxCell>
        <mxCell id="vs3mQmGJEYI14M0S7p_8-10" style="edgeStyle=orthogonalEdgeStyle;rounded=0;orthogonalLoop=1;jettySize=auto;html=1;exitX=1;exitY=0.5;exitDx=0;exitDy=0;entryX=0.5;entryY=0;entryDx=0;entryDy=0;" edge="1" parent="1" source="vs3mQmGJEYI14M0S7p_8-6" target="vs3mQmGJEYI14M0S7p_8-9">
          <mxGeometry relative="1" as="geometry"/>
        </mxCell>
        <mxCell id="vs3mQmGJEYI14M0S7p_8-11" value="N" style="text;html=1;align=center;verticalAlign=middle;resizable=0;points=[];labelBackgroundColor=#ffffff;" vertex="1" connectable="0" parent="vs3mQmGJEYI14M0S7p_8-10">
          <mxGeometry x="-0.1542" y="-3" relative="1" as="geometry">
            <mxPoint as="offset"/>
          </mxGeometry>
        </mxCell>
        <mxCell id="vs3mQmGJEYI14M0S7p_8-12" value="Y" style="edgeStyle=orthogonalEdgeStyle;rounded=0;orthogonalLoop=1;jettySize=auto;html=1;" edge="1" parent="1" source="vs3mQmGJEYI14M0S7p_8-6" target="vs3mQmGJEYI14M0S7p_8-8">
          <mxGeometry relative="1" as="geometry"/>
        </mxCell>
        <mxCell id="vs3mQmGJEYI14M0S7p_8-6" value="isUserActive&lt;br&gt;用户是否在线" style="rhombus;whiteSpace=wrap;html=1;" vertex="1" parent="1">
          <mxGeometry x="373" y="430" width="80" height="80" as="geometry"/>
        </mxCell>
        <mxCell id="vs3mQmGJEYI14M0S7p_8-16" style="edgeStyle=orthogonalEdgeStyle;rounded=0;orthogonalLoop=1;jettySize=auto;html=1;entryX=0.5;entryY=0;entryDx=0;entryDy=0;" edge="1" parent="1" source="vs3mQmGJEYI14M0S7p_8-8" target="vs3mQmGJEYI14M0S7p_8-15">
          <mxGeometry relative="1" as="geometry"/>
        </mxCell>
        <mxCell id="vs3mQmGJEYI14M0S7p_8-8" value="MenusTask&lt;br&gt;执行菜单加载任务&lt;br&gt;" style="rounded=0;whiteSpace=wrap;html=1;" vertex="1" parent="1">
          <mxGeometry x="353" y="560" width="120" height="60" as="geometry"/>
        </mxCell>
        <mxCell id="vs3mQmGJEYI14M0S7p_8-9" value="离线模式" style="rounded=0;whiteSpace=wrap;html=1;" vertex="1" parent="1">
          <mxGeometry x="530" y="560" width="120" height="60" as="geometry"/>
        </mxCell>
        <mxCell id="vs3mQmGJEYI14M0S7p_8-20" value="网络数据不为空" style="edgeStyle=orthogonalEdgeStyle;rounded=0;orthogonalLoop=1;jettySize=auto;html=1;exitX=0.5;exitY=1;exitDx=0;exitDy=0;entryX=0.5;entryY=0;entryDx=0;entryDy=0;" edge="1" parent="1" source="vs3mQmGJEYI14M0S7p_8-15">
          <mxGeometry relative="1" as="geometry">
            <mxPoint x="413" y="830" as="targetPoint"/>
          </mxGeometry>
        </mxCell>
        <mxCell id="vs3mQmGJEYI14M0S7p_8-35" value="网络数据为空" style="edgeStyle=orthogonalEdgeStyle;rounded=0;orthogonalLoop=1;jettySize=auto;html=1;" edge="1" parent="1" source="vs3mQmGJEYI14M0S7p_8-15">
          <mxGeometry relative="1" as="geometry">
            <mxPoint x="887" y="870" as="targetPoint"/>
            <Array as="points">
              <mxPoint x="880" y="725"/>
              <mxPoint x="880" y="880"/>
              <mxPoint x="887" y="880"/>
            </Array>
          </mxGeometry>
        </mxCell>
        <mxCell id="vs3mQmGJEYI14M0S7p_8-15" value="queryMenuList&lt;br&gt;获取网络数据&lt;br&gt;ReturnDefaultElement result&lt;br&gt;&lt;br&gt;result == null) || (result.resultCode" style="rhombus;whiteSpace=wrap;html=1;" vertex="1" parent="1">
          <mxGeometry x="323" y="670" width="180" height="110" as="geometry"/>
        </mxCell>
        <mxCell id="vs3mQmGJEYI14M0S7p_8-23" style="edgeStyle=orthogonalEdgeStyle;rounded=0;orthogonalLoop=1;jettySize=auto;html=1;" edge="1" parent="1" source="vs3mQmGJEYI14M0S7p_8-21" target="vs3mQmGJEYI14M0S7p_8-22">
          <mxGeometry relative="1" as="geometry"/>
        </mxCell>
        <mxCell id="vs3mQmGJEYI14M0S7p_8-24" value="N" style="text;html=1;align=center;verticalAlign=middle;resizable=0;points=[];labelBackgroundColor=#ffffff;" vertex="1" connectable="0" parent="vs3mQmGJEYI14M0S7p_8-23">
          <mxGeometry x="-0.1875" y="1" relative="1" as="geometry">
            <mxPoint as="offset"/>
          </mxGeometry>
        </mxCell>
        <mxCell id="vs3mQmGJEYI14M0S7p_8-26" style="edgeStyle=orthogonalEdgeStyle;rounded=0;orthogonalLoop=1;jettySize=auto;html=1;" edge="1" parent="1" source="vs3mQmGJEYI14M0S7p_8-21">
          <mxGeometry relative="1" as="geometry">
            <mxPoint x="210" y="960" as="targetPoint"/>
          </mxGeometry>
        </mxCell>
        <mxCell id="vs3mQmGJEYI14M0S7p_8-21" value="mIsInitByCache&lt;br&gt;菜单初始化是否是根据缓存&lt;br&gt;默认为False" style="rhombus;whiteSpace=wrap;html=1;" vertex="1" parent="1">
          <mxGeometry x="348" y="830" width="130" height="80" as="geometry"/>
        </mxCell>
        <mxCell id="vs3mQmGJEYI14M0S7p_8-32" style="edgeStyle=orthogonalEdgeStyle;rounded=0;orthogonalLoop=1;jettySize=auto;html=1;" edge="1" parent="1" source="vs3mQmGJEYI14M0S7p_8-22" target="vs3mQmGJEYI14M0S7p_8-28">
          <mxGeometry relative="1" as="geometry">
            <Array as="points">
              <mxPoint x="630" y="1210"/>
            </Array>
          </mxGeometry>
        </mxCell>
        <mxCell id="vs3mQmGJEYI14M0S7p_8-22" value="initMenus(result)&lt;br&gt;mIsInitByCache = false&lt;br&gt;然后再将菜单最新数据写入到缓存中" style="rounded=0;whiteSpace=wrap;html=1;" vertex="1" parent="1">
          <mxGeometry x="520" y="970" width="200" height="60" as="geometry"/>
        </mxCell>
        <mxCell id="vs3mQmGJEYI14M0S7p_8-29" value="Y" style="edgeStyle=orthogonalEdgeStyle;rounded=0;orthogonalLoop=1;jettySize=auto;html=1;exitX=0.5;exitY=1;exitDx=0;exitDy=0;" edge="1" parent="1" source="vs3mQmGJEYI14M0S7p_8-27" target="vs3mQmGJEYI14M0S7p_8-28">
          <mxGeometry relative="1" as="geometry">
            <Array as="points">
              <mxPoint x="210" y="1210"/>
            </Array>
          </mxGeometry>
        </mxCell>
        <mxCell id="vs3mQmGJEYI14M0S7p_8-31" style="edgeStyle=orthogonalEdgeStyle;rounded=0;orthogonalLoop=1;jettySize=auto;html=1;entryX=0;entryY=0.5;entryDx=0;entryDy=0;" edge="1" parent="1" source="vs3mQmGJEYI14M0S7p_8-27" target="vs3mQmGJEYI14M0S7p_8-22">
          <mxGeometry relative="1" as="geometry"/>
        </mxCell>
        <mxCell id="vs3mQmGJEYI14M0S7p_8-33" value="N" style="text;html=1;align=center;verticalAlign=middle;resizable=0;points=[];labelBackgroundColor=#ffffff;" vertex="1" connectable="0" parent="vs3mQmGJEYI14M0S7p_8-31">
          <mxGeometry x="-0.1185" y="1" relative="1" as="geometry">
            <mxPoint as="offset"/>
          </mxGeometry>
        </mxCell>
        <mxCell id="vs3mQmGJEYI14M0S7p_8-27" value="缓存和服务器数据是否一致&lt;br&gt;cacheData&lt;br&gt;和&lt;br&gt;serverData" style="rhombus;whiteSpace=wrap;html=1;" vertex="1" parent="1">
          <mxGeometry x="170" y="960" width="80" height="80" as="geometry"/>
        </mxCell>
        <mxCell id="vs3mQmGJEYI14M0S7p_8-28" value="End" style="rounded=1;whiteSpace=wrap;html=1;" vertex="1" parent="1">
          <mxGeometry x="353" y="1180" width="120" height="60" as="geometry"/>
        </mxCell>
        <mxCell id="vs3mQmGJEYI14M0S7p_8-44" value="N" style="edgeStyle=orthogonalEdgeStyle;rounded=0;orthogonalLoop=1;jettySize=auto;html=1;entryX=0.5;entryY=0;entryDx=0;entryDy=0;" edge="1" parent="1" source="vs3mQmGJEYI14M0S7p_8-42" target="vs3mQmGJEYI14M0S7p_8-43">
          <mxGeometry relative="1" as="geometry">
            <Array as="points">
              <mxPoint x="1010" y="910"/>
            </Array>
          </mxGeometry>
        </mxCell>
        <mxCell id="vs3mQmGJEYI14M0S7p_8-48" style="edgeStyle=orthogonalEdgeStyle;rounded=0;orthogonalLoop=1;jettySize=auto;html=1;exitX=0.5;exitY=0;exitDx=0;exitDy=0;" edge="1" parent="1" source="vs3mQmGJEYI14M0S7p_8-42">
          <mxGeometry relative="1" as="geometry">
            <mxPoint x="410" y="290" as="targetPoint"/>
            <Array as="points">
              <mxPoint x="880" y="290"/>
            </Array>
          </mxGeometry>
        </mxCell>
        <mxCell id="vs3mQmGJEYI14M0S7p_8-49" value="重新下发加载命令" style="text;html=1;align=center;verticalAlign=middle;resizable=0;points=[];labelBackgroundColor=#ffffff;" vertex="1" connectable="0" parent="vs3mQmGJEYI14M0S7p_8-48">
          <mxGeometry x="-0.3642" y="4" relative="1" as="geometry">
            <mxPoint as="offset"/>
          </mxGeometry>
        </mxCell>
        <mxCell id="vs3mQmGJEYI14M0S7p_8-42" value="mIsInitByCache" style="rhombus;whiteSpace=wrap;html=1;" vertex="1" parent="1">
          <mxGeometry x="840" y="880" width="80" height="70" as="geometry"/>
        </mxCell>
        <mxCell id="vs3mQmGJEYI14M0S7p_8-50" style="edgeStyle=orthogonalEdgeStyle;rounded=0;orthogonalLoop=1;jettySize=auto;html=1;" edge="1" parent="1" source="vs3mQmGJEYI14M0S7p_8-43">
          <mxGeometry relative="1" as="geometry">
            <mxPoint x="410" y="290" as="targetPoint"/>
            <Array as="points">
              <mxPoint x="1010" y="290"/>
            </Array>
          </mxGeometry>
        </mxCell>
        <mxCell id="vs3mQmGJEYI14M0S7p_8-51" value="小于限制次数&lt;br&gt;重新下发加载命令" style="text;html=1;align=center;verticalAlign=middle;resizable=0;points=[];labelBackgroundColor=#ffffff;" vertex="1" connectable="0" parent="vs3mQmGJEYI14M0S7p_8-50">
          <mxGeometry x="-0.3433" y="1" relative="1" as="geometry">
            <mxPoint as="offset"/>
          </mxGeometry>
        </mxCell>
        <mxCell id="vs3mQmGJEYI14M0S7p_8-53" value="Y" style="edgeStyle=orthogonalEdgeStyle;rounded=0;orthogonalLoop=1;jettySize=auto;html=1;" edge="1" parent="1" source="vs3mQmGJEYI14M0S7p_8-43" target="vs3mQmGJEYI14M0S7p_8-52">
          <mxGeometry relative="1" as="geometry"/>
        </mxCell>
        <mxCell id="vs3mQmGJEYI14M0S7p_8-43" value="尝试次数小于限制次数" style="rhombus;whiteSpace=wrap;html=1;" vertex="1" parent="1">
          <mxGeometry x="970" y="960" width="80" height="80" as="geometry"/>
        </mxCell>
        <mxCell id="vs3mQmGJEYI14M0S7p_8-55" value="本地数据为空" style="edgeStyle=orthogonalEdgeStyle;rounded=0;orthogonalLoop=1;jettySize=auto;html=1;" edge="1" parent="1" source="vs3mQmGJEYI14M0S7p_8-52" target="vs3mQmGJEYI14M0S7p_8-54">
          <mxGeometry relative="1" as="geometry"/>
        </mxCell>
        <mxCell id="vs3mQmGJEYI14M0S7p_8-62" style="edgeStyle=orthogonalEdgeStyle;rounded=0;orthogonalLoop=1;jettySize=auto;html=1;entryX=0.5;entryY=0;entryDx=0;entryDy=0;" edge="1" parent="1" source="vs3mQmGJEYI14M0S7p_8-52" target="vs3mQmGJEYI14M0S7p_8-61">
          <mxGeometry relative="1" as="geometry"/>
        </mxCell>
        <mxCell id="vs3mQmGJEYI14M0S7p_8-63" value="本地数据 不为空" style="text;html=1;align=center;verticalAlign=middle;resizable=0;points=[];labelBackgroundColor=#ffffff;" vertex="1" connectable="0" parent="vs3mQmGJEYI14M0S7p_8-62">
          <mxGeometry x="0.1453" y="2" relative="1" as="geometry">
            <mxPoint as="offset"/>
          </mxGeometry>
        </mxCell>
        <mxCell id="vs3mQmGJEYI14M0S7p_8-52" value="localData == null&lt;br&gt;判断本地数据是否为空" style="rhombus;whiteSpace=wrap;html=1;" vertex="1" parent="1">
          <mxGeometry x="970" y="1089" width="80" height="80" as="geometry"/>
        </mxCell>
        <mxCell id="vs3mQmGJEYI14M0S7p_8-58" style="edgeStyle=orthogonalEdgeStyle;rounded=0;orthogonalLoop=1;jettySize=auto;html=1;" edge="1" parent="1" source="vs3mQmGJEYI14M0S7p_8-54">
          <mxGeometry relative="1" as="geometry">
            <mxPoint x="420" y="290" as="targetPoint"/>
            <Array as="points">
              <mxPoint x="1190" y="1250"/>
              <mxPoint x="1190" y="290"/>
            </Array>
          </mxGeometry>
        </mxCell>
        <mxCell id="vs3mQmGJEYI14M0S7p_8-59" value="重新下载加载菜单数据" style="text;html=1;align=center;verticalAlign=middle;resizable=0;points=[];labelBackgroundColor=#ffffff;" vertex="1" connectable="0" parent="vs3mQmGJEYI14M0S7p_8-58">
          <mxGeometry x="-0.4703" y="4" relative="1" as="geometry">
            <mxPoint as="offset"/>
          </mxGeometry>
        </mxCell>
        <mxCell id="vs3mQmGJEYI14M0S7p_8-54" value="加载离线数据" style="rounded=0;whiteSpace=wrap;html=1;" vertex="1" parent="1">
          <mxGeometry x="950" y="1220" width="120" height="60" as="geometry"/>
        </mxCell>
        <mxCell id="vs3mQmGJEYI14M0S7p_8-65" style="edgeStyle=orthogonalEdgeStyle;rounded=0;orthogonalLoop=1;jettySize=auto;html=1;" edge="1" parent="1" source="vs3mQmGJEYI14M0S7p_8-61">
          <mxGeometry relative="1" as="geometry">
            <mxPoint x="408" y="290" as="targetPoint"/>
            <Array as="points">
              <mxPoint x="1470" y="1240"/>
              <mxPoint x="1470" y="290"/>
            </Array>
          </mxGeometry>
        </mxCell>
        <mxCell id="vs3mQmGJEYI14M0S7p_8-66" value="重新下载加载菜单数据" style="text;html=1;align=center;verticalAlign=middle;resizable=0;points=[];labelBackgroundColor=#ffffff;" vertex="1" connectable="0" parent="vs3mQmGJEYI14M0S7p_8-65">
          <mxGeometry x="-0.5309" y="3" relative="1" as="geometry">
            <mxPoint as="offset"/>
          </mxGeometry>
        </mxCell>
        <mxCell id="vs3mQmGJEYI14M0S7p_8-61" value="加载本地菜单数据&lt;br&gt;mIsInitByCache = true" style="rounded=0;whiteSpace=wrap;html=1;" vertex="1" parent="1">
          <mxGeometry x="1260" y="1210" width="120" height="60" as="geometry"/>
        </mxCell>
      </root>
    </mxGraphModel>
  </diagram>
</mxfile>
